<?xml version="1.0" encoding="UTF-8" standalone="no"?>
<!-- Created with Inkscape (http://www.inkscape.org/) -->

<svg
   xmlns:dc="http://purl.org/dc/elements/1.1/"
   xmlns:cc="http://creativecommons.org/ns#"
   xmlns:rdf="http://www.w3.org/1999/02/22-rdf-syntax-ns#"
   xmlns:svg="http://www.w3.org/2000/svg"
   xmlns="http://www.w3.org/2000/svg"
   xmlns:sodipodi="http://sodipodi.sourceforge.net/DTD/sodipodi-0.dtd"
   xmlns:inkscape="http://www.inkscape.org/namespaces/inkscape"
   width="167.13638mm"
   height="111.73928mm"
   viewBox="0 0 167.13638 111.73928"
   version="1.1"
   id="svg8"
   inkscape:version="0.92.4 (5da689c313, 2019-01-14)"
   sodipodi:docname="cajavacia.svg">
  <defs
     id="defs2">
    <inkscape:perspective
       sodipodi:type="inkscape:persp3d"
       inkscape:vp_x="0 : 148.5 : 1"
       inkscape:vp_y="0 : 999.99998 : 0"
       inkscape:vp_z="209.99999 : 148.5 : 1"
       inkscape:persp3d-origin="105 : 98.999998 : 1"
       id="perspective851" />
  </defs>
  <sodipodi:namedview
     id="base"
     pagecolor="#ffffff"
     bordercolor="#666666"
     borderopacity="1.0"
     inkscape:pageopacity="0.0"
     inkscape:pageshadow="2"
     inkscape:zoom="0.7"
     inkscape:cx="270.77197"
     inkscape:cy="519.99347"
     inkscape:document-units="mm"
     inkscape:current-layer="layer1"
     showgrid="false"
     inkscape:window-width="1920"
     inkscape:window-height="1017"
     inkscape:window-x="1912"
     inkscape:window-y="-8"
     inkscape:window-maximized="1"
     fit-margin-top="0"
     fit-margin-left="0"
     fit-margin-right="0"
     fit-margin-bottom="0" />
  <metadata
     id="metadata5">
    <rdf:RDF>
      <cc:Work
         rdf:about="">
        <dc:format>image/svg+xml</dc:format>
        <dc:type
           rdf:resource="http://purl.org/dc/dcmitype/StillImage" />
        <dc:title></dc:title>
      </cc:Work>
    </rdf:RDF>
  </metadata>
  <g
     inkscape:label="Capa 1"
     inkscape:groupmode="layer"
     id="layer1"
     transform="translate(-15.272582,-36.860018)">
    <path
       style="fill:none;stroke:#000000;stroke-width:0.26458332px;stroke-linecap:butt;stroke-linejoin:miter;stroke-opacity:1"
       d="M 98.840773,54.433779 98.651784,148.25226"
       id="path880"
       inkscape:connector-curvature="0"
       sodipodi:nodetypes="cc" />
    <path
       style="fill:none;stroke:#000000;stroke-width:0.26458332px;stroke-linecap:butt;stroke-linejoin:miter;stroke-opacity:1"
       d="m 165.33961,84.988447 v 41.192913 c 0,0 0.53454,6.34765 -8.31876,8.38558 l -56.34376,13.73098"
       id="path882"
       inkscape:connector-curvature="0"
       sodipodi:nodetypes="cccc" />
    <path
       style="fill:none;stroke:#000000;stroke-width:0.26458332px;stroke-linecap:butt;stroke-linejoin:miter;stroke-opacity:1"
       d="m 100.67709,148.29792 c 0,0 -1.444927,0.51783 -5.813113,-0.25892 l -56.0033,-13.75703 c 0,0 -6.449219,-1.27567 -6.567336,-6.94532"
       id="path884"
       inkscape:connector-curvature="0" />
    <path
       style="fill:#b88252;fill-opacity:1;stroke:#000000;stroke-width:0.26458332px;stroke-linecap:butt;stroke-linejoin:miter;stroke-opacity:1"
       d="M 98.840773,54.433779 123.0785,94.310265 c 0,0 0.8032,2.362353 5.05543,1.13393 l 51.49925,-14.575706 c 0,0 4.15774,-1.535528 2.05525,-5.504278 L 167.96317,47.771949 c 0,0 -0.94494,-2.126116 -4.58296,-1.700893 z"
       id="path890"
       inkscape:connector-curvature="0" />
    <path
       style="fill:#b88252;fill-opacity:1;stroke:#000200;stroke-width:0.26458332px;stroke-linecap:butt;stroke-linejoin:miter;stroke-opacity:1"
       d="M 98.840773,54.433779 74.60305,94.310265 c 0,0 -0.8032,2.362353 -5.05543,1.13393 L 18.04837,80.868489 c 0,0 -4.15774,-1.535527 -2.05525,-5.504277 L 29.71838,47.771949 c 0,0 0.94494,-2.126116 4.58296,-1.700893 z"
       id="path890-5"
       inkscape:connector-curvature="0" />
    <path
       style="fill:none;stroke:#000000;stroke-width:0.26458332px;stroke-linecap:butt;stroke-linejoin:miter;stroke-opacity:1"
       d="M 32.268845,46.109826 100.67072,36.99115"
       id="path928"
       inkscape:connector-curvature="0" />
    <path
       style="fill:none;stroke:#000000;stroke-width:0.26458332px;stroke-linecap:butt;stroke-linejoin:miter;stroke-opacity:1"
       d="m 100.67072,36.991149 64.72339,9.121247"
       id="path954"
       inkscape:connector-curvature="0"
       sodipodi:nodetypes="cc" />
    <path
       style="fill:none;stroke:#000000;stroke-width:0.26458332px;stroke-linecap:butt;stroke-linejoin:miter;stroke-opacity:1"
       d="M 32.29334,127.33665 V 85.289124"
       id="path956"
       inkscape:connector-curvature="0"
       sodipodi:nodetypes="cc" />
    <path
       style="opacity:1;fill:#9a6434;fill-opacity:1;stroke:none;stroke-width:2.15711308;stroke-miterlimit:4;stroke-dasharray:none;stroke-dashoffset:0;stroke-opacity:1"
       d="M 276.48969,192.30189 C 138.61363,174.25065 136.43592,173.95202 138.0988,173.32369 c 1.97008,-0.7444 237.95099,-32.04613 241.93153,-32.09105 4.35019,-0.0491 229.8097,31.70636 229.8097,32.36816 0,0.41862 -219.65443,29.30296 -234.86046,30.88391 -1.66675,0.17329 -45.9872,-5.30898 -98.48988,-12.18282 z"
       id="path958"
       inkscape:connector-curvature="0"
       transform="scale(0.26458333)" />
    <path
       style="opacity:1;fill:#cc9666;fill-opacity:1;stroke:none;stroke-width:2.15711308;stroke-miterlimit:4;stroke-dasharray:none;stroke-dashoffset:0;stroke-opacity:1"
       d="m 374.17885,386.56697 c 0.23028,-95.7459 0.50464,-174.66558 0.6097,-175.37706 0.10506,-0.71149 6.19401,8.60717 13.53101,20.70813 7.33699,12.10095 27.67717,45.6393 45.20038,74.52967 17.52322,28.89036 32.96026,53.38356 34.30454,54.42933 4.96915,3.86572 9.40871,2.9077 83.47477,-18.01307 38.58665,-10.89922 70.73622,-20.0185 71.44347,-20.26505 1.03567,-0.36103 1.23227,15.32381 1.01016,80.59367 l -0.27579,81.04196 -3.03045,5.48635 c -3.86105,6.99007 -12.00236,13.12006 -21.35753,16.08112 -6.58816,2.08527 -214.0543,52.81227 -221.68879,54.20455 l -3.64016,0.66384 z"
       id="path960"
       inkscape:connector-curvature="0"
       transform="scale(0.26458333)" />
    <path
       style="opacity:1;fill:#cc9666;fill-opacity:1;stroke:none;stroke-width:2.15711308;stroke-miterlimit:4;stroke-dasharray:none;stroke-dashoffset:0;stroke-opacity:1"
       d="m 364.37297,559.40719 c -11.50202,-1.71318 -220.84567,-53.73316 -225.98518,-56.15524 -6.23431,-2.93804 -12.59371,-9.76744 -14.25333,-15.30674 -1.85965,-6.20698 -1.69261,-166.26995 0.17277,-165.55413 0.7484,0.28719 32.90914,9.4602 71.4683,20.38446 72.53483,20.54997 77.9615,21.7516 83.0815,18.39685 1.36529,-0.89457 22.15134,-34.07137 47.75484,-76.22192 l 45.33724,-74.63785 0.31345,143.51696 c 0.29798,136.42755 -0.27872,206.79988 -1.69249,206.52831 -0.35269,-0.0678 -3.14139,-0.49557 -6.1971,-0.9507 z"
       id="path962"
       inkscape:connector-curvature="0"
       transform="scale(0.26458333)" />
    <path
       style="fill:none;stroke:#000000;stroke-width:0.26458332px;stroke-linecap:butt;stroke-linejoin:miter;stroke-opacity:1"
       d="M 100.67072,36.991149 V 54.055803"
       id="path964"
       inkscape:connector-curvature="0" />
  </g>
</svg>
